<svg width="36" height="36" viewBox="0 0 36 36" fill="none" xmlns="http://www.w3.org/2000/svg">
<path d="M9 30C7.35 30 5.9375 29.4125 4.7625 28.2375C3.5875 27.0625 3 25.65 3 24V12C3 10.35 3.5875 8.9375 4.7625 7.7625C5.9375 6.5875 7.35 6 9 6H27C28.65 6 30.0625 6.5875 31.2375 7.7625C32.4125 8.9375 33 10.35 33 12V24C33 25.65 32.4125 27.0625 31.2375 28.2375C30.0625 29.4125 28.65 30 27 30H9ZM9 12H27C27.55 12 28.075 12.0625 28.575 12.1875C29.075 12.3125 29.55 12.5125 30 12.7875V12C30 11.175 29.7063 10.4688 29.1188 9.88125C28.5313 9.29375 27.825 9 27 9H9C8.175 9 7.46875 9.29375 6.88125 9.88125C6.29375 10.4688 6 11.175 6 12V12.7875C6.45 12.5125 6.925 12.3125 7.425 12.1875C7.925 12.0625 8.45 12 9 12ZM6.225 16.875L22.9125 20.925C23.1375 20.975 23.3625 20.975 23.5875 20.925C23.8125 20.875 24.025 20.775 24.225 20.625L29.4375 16.275C29.1625 15.9 28.8125 15.5938 28.3875 15.3563C27.9625 15.1188 27.5 15 27 15H9C8.35 15 7.78125 15.1688 7.29375 15.5063C6.80625 15.8438 6.45 16.3 6.225 16.875Z" fill="#830007"/>
</svg>
