<svg width="80" height="28" viewBox="0 0 80 28" fill="none" xmlns="http://www.w3.org/2000/svg">
<path d="M11.2389 14.3032L16.2742 0H22.5183V28H16.6771V18.263C16.6771 15.4617 16.9321 12.7006 17.4423 9.98013L13.5757 20.8888H8.90264L5.03537 9.98013C5.54559 12.4851 5.80058 15.2462 5.80058 18.263V28H0V0H6.20348L11.2389 14.3032Z" fill="black"/>
<path d="M31.8803 4.24229C32.9277 7.55543 33.6801 10.4919 34.1366 13.0508C34.6469 10.438 35.4123 7.47461 36.4329 4.16147L37.7215 0H43.7638L37.1175 19.313V28H30.9946V19.313L24.3476 0H30.5511L31.8803 4.24229Z" fill="black"/>
<path d="M60.1764 5.25227H55.141V28H49.0181V5.25227H43.9827V0H60.1764V5.25227Z" fill="black"/>
<path d="M68.3176 11.5151H73.8771V0H80V28H73.8771V16.9291H68.3176V28H62.1947V0H68.3176V11.5151Z" fill="black"/>
</svg>
