<svg width="124" height="43" viewBox="0 0 124 43" fill="none" xmlns="http://www.w3.org/2000/svg">
<path d="M17.2979 21.9482L25.0479 0H34.6582V42.9658H25.668V28.0244C25.668 23.7259 26.0604 19.489 26.8457 15.3145L20.8945 32.0537H13.7021L7.75 15.3145C8.53528 19.1583 8.92773 23.3952 8.92773 28.0244V42.9658H0V0H9.54785L17.2979 21.9482Z" fill="black"/>
<path d="M49.0674 6.50977C50.6794 11.5938 51.8374 16.0997 52.54 20.0264C53.3254 16.017 54.5036 11.4697 56.0742 6.38574L58.0576 0H67.3574L57.1279 29.6357V42.9658H47.7041V29.6357L37.4736 0H47.0215L49.0674 6.50977Z" fill="black"/>
<path d="M92.6182 8.05957H84.8682V42.9658H75.4443V8.05957H67.6943V0H92.6182V8.05957Z" fill="black"/>
<path d="M105.148 17.6699H113.705V0H123.129V42.9658H113.705V25.9775H105.148V42.9658H95.7246V0H105.148V17.6699Z" fill="black"/>
</svg>
