<svg width="36" height="36" viewBox="0 0 36 36" fill="none" xmlns="http://www.w3.org/2000/svg">
<path d="M24.15 19.95L21.975 17.775C22.2 16.6 21.8625 15.5 20.9625 14.475C20.0625 13.45 18.9 13.05 17.475 13.275L15.3 11.1C15.725 10.9 16.1563 10.75 16.5938 10.65C17.0313 10.55 17.5 10.5 18 10.5C19.875 10.5 21.4688 11.1563 22.7812 12.4688C24.0938 13.7813 24.75 15.375 24.75 17.25C24.75 17.75 24.7 18.2188 24.6 18.6563C24.5 19.0938 24.35 19.525 24.15 19.95ZM28.95 24.675L26.775 22.575C27.725 21.85 28.5688 21.0563 29.3063 20.1938C30.0438 19.3313 30.675 18.35 31.2 17.25C29.95 14.725 28.1563 12.7188 25.8188 11.2313C23.4813 9.74376 20.875 9.00001 18 9.00001C17.275 9.00001 16.5625 9.05001 15.8625 9.15001C15.1625 9.25001 14.475 9.40001 13.8 9.60001L11.475 7.27501C12.5 6.85001 13.55 6.53126 14.625 6.31876C15.7 6.10626 16.825 6.00001 18 6.00001C21.775 6.00001 25.1375 7.04376 28.0875 9.13126C31.0375 11.2188 33.175 13.925 34.5 17.25C33.925 18.725 33.1688 20.0938 32.2313 21.3563C31.2938 22.6188 30.2 23.725 28.95 24.675ZM29.7 33.9L23.4 27.675C22.525 27.95 21.6438 28.1563 20.7563 28.2938C19.8688 28.4313 18.95 28.5 18 28.5C14.225 28.5 10.8625 27.4563 7.9125 25.3688C4.9625 23.2813 2.825 20.575 1.5 17.25C2.025 15.925 2.6875 14.6938 3.4875 13.5563C4.2875 12.4188 5.2 11.4 6.225 10.5L2.1 6.30001L4.2 4.20001L31.8 31.8L29.7 33.9ZM8.325 12.6C7.6 13.25 6.9375 13.9625 6.3375 14.7375C5.7375 15.5125 5.225 16.35 4.8 17.25C6.05 19.775 7.84375 21.7813 10.1813 23.2688C12.5188 24.7563 15.125 25.5 18 25.5C18.5 25.5 18.9875 25.4688 19.4625 25.4063C19.9375 25.3438 20.425 25.275 20.925 25.2L19.575 23.775C19.3 23.85 19.0375 23.9063 18.7875 23.9438C18.5375 23.9813 18.275 24 18 24C16.125 24 14.5313 23.3438 13.2188 22.0313C11.9062 20.7188 11.25 19.125 11.25 17.25C11.25 16.975 11.2688 16.7125 11.3063 16.4625C11.3438 16.2125 11.4 15.95 11.475 15.675L8.325 12.6Z" fill="#830007"/>
</svg>
